<?xml version="1.0" encoding="iso-8859-1"?>
<!-- Generator: Adobe Illustrator 17.1.0, SVG Export Plug-In . SVG Version: 6.00 Build 0)  -->
<!DOCTYPE svg PUBLIC "-//W3C//DTD SVG 1.1//EN" "http://www.w3.org/Graphics/SVG/1.1/DTD/svg11.dtd">
<svg version="1.1" id="Capa_1" xmlns="http://www.w3.org/2000/svg" xmlns:xlink="http://www.w3.org/1999/xlink" x="0px" y="0px"
	 viewBox="0 0 476.803 476.803" style="enable-background:new 0 0 476.803 476.803;" xml:space="preserve">
<path d="M385.727,123.953v-23.185c0-0.299-0.019-0.593-0.051-0.883c-0.008-0.074-0.023-0.147-0.034-0.221
	c-0.03-0.22-0.067-0.438-0.115-0.652c-0.018-0.082-0.042-0.163-0.063-0.244c-0.053-0.205-0.112-0.408-0.181-0.606
	c-0.028-0.082-0.059-0.163-0.09-0.245c-0.075-0.197-0.159-0.39-0.249-0.58c-0.023-0.048-0.039-0.099-0.063-0.147l-25.133-50.266
	h17.978c4.418,0,8-3.582,8-8s-3.582-8-8-8h-30.922H280.12l38.735-15.494c4.102-1.641,6.097-6.297,4.456-10.398
	c-1.641-4.103-6.295-6.099-10.398-4.457l-75.873,30.35H130.355H99.434c-4.418,0-8,3.582-8,8s3.582,8,8,8h17.977L92.279,97.19
	c-0.024,0.048-0.04,0.099-0.063,0.147c-0.09,0.189-0.173,0.382-0.249,0.58c-0.031,0.081-0.061,0.162-0.09,0.245
	c-0.069,0.199-0.128,0.401-0.181,0.606c-0.021,0.081-0.044,0.162-0.063,0.244c-0.048,0.214-0.084,0.432-0.115,0.652
	c-0.01,0.074-0.026,0.147-0.034,0.221c-0.032,0.29-0.051,0.584-0.051,0.883v162.905c-0.477,1.542-0.477,3.197,0,4.739v163.782
	c0,14.061,15.771,25.347,46.878,33.545c27.07,7.135,62.68,11.064,100.269,11.064c37.921,0,73.651-3.93,100.609-11.066
	c30.88-8.175,46.537-19.46,46.537-33.543v-308.23C385.727,123.96,385.727,123.957,385.727,123.953z M238.557,46.924
	c0.009,0,0.017,0.002,0.026,0.002c0.014,0,0.028-0.002,0.042-0.002h103.236l22.922,45.844h-23.132c-4.418,0-8,3.582-8,8s3.582,8,8,8
	h28.076v11.876L107.434,382.936v-113.94l160.229-160.228h22.454c4.418,0,8-3.582,8-8s-3.582-8-8-8H112.378l22.921-45.844H238.557z
	 M107.434,108.768h137.6l-137.6,137.599V108.768z M335.095,450.27c-25.66,6.792-59.937,10.533-96.515,10.533
	c-36.252,0-70.413-3.741-96.191-10.536c-28.533-7.52-34.955-15.774-34.955-18.073v-26.629l262.293-262.292v288.921
	C369.727,434.504,363.365,442.786,335.095,450.27z"/>
<g>
</g>
<g>
</g>
<g>
</g>
<g>
</g>
<g>
</g>
<g>
</g>
<g>
</g>
<g>
</g>
<g>
</g>
<g>
</g>
<g>
</g>
<g>
</g>
<g>
</g>
<g>
</g>
<g>
</g>
</svg>
