<?xml version="1.0" standalone="no"?>
<!DOCTYPE svg PUBLIC "-//W3C//DTD SVG 20010904//EN"
 "http://www.w3.org/TR/2001/REC-SVG-20010904/DTD/svg10.dtd">
<svg version="1.0" xmlns="http://www.w3.org/2000/svg"
 width="4096.000000pt" height="4096.000000pt" viewBox="0 0 4096.000000 4096.000000"
 preserveAspectRatio="xMidYMid meet">
<metadata>
Created by potrace 1.15, written by Peter Selinger 2001-2017
</metadata>
<g transform="translate(0.000000,4096.000000) scale(0.100000,-0.100000)"
fill="#000000" stroke="none">
<path d="M5997 26473 c-4 -3 -7 -1668 -7 -3699 0 -3501 1 -3693 18 -3712 10
-13 91 -48 207 -90 l190 -68 5 962 5 962 1850 -673 1850 -673 3 -965 2 -965
43 -16 c23 -9 89 -33 147 -54 l105 -39 3 964 c1 529 3 963 5 963 1 0 835 -304
1852 -674 l1850 -674 3 -966 c1 -531 4 -966 5 -966 2 0 69 -24 150 -54 l147
-54 0 965 c0 915 1 965 18 958 9 -3 779 -284 1709 -622 l1693 -616 2 -966 3
-965 140 -52 140 -52 153 -1 152 -1 0 255 0 255 734 0 734 0 82 -117 c204
-289 353 -444 506 -521 l40 -20 53 28 c149 82 330 277 516 558 l48 72 688 0
689 0 0 -255 0 -255 153 1 152 1 140 52 140 52 3 965 2 966 1693 616 c931 339
1701 619 1710 623 16 6 17 -55 17 -959 l0 -965 147 54 c81 30 148 54 150 54 1
0 4 435 5 966 l3 966 1850 674 c1018 371 1851 674 1852 674 2 0 4 -434 5 -963
l3 -964 105 39 c58 21 124 45 147 54 l43 16 2 965 3 965 1850 674 c1018 370
1851 674 1852 674 2 0 4 -433 5 -963 l3 -964 194 71 c145 53 196 76 202 91 4
11 8 1682 8 3713 l1 3692 -45 0 -45 0 0 -375 c0 -243 -4 -375 -10 -375 -6 0
-10 40 -10 99 0 77 -4 103 -16 115 -8 9 -16 16 -17 16 -1 0 -60 -22 -132 -48
l-130 -48 -3 -1521 -2 -1521 -73 -26 c-39 -15 -873 -318 -1852 -675 l-1780
-648 -3 1394 c-2 1175 -4 1393 -16 1393 -13 0 -53 -14 -218 -76 l-68 -26 0
-1397 0 -1398 -292 -107 c-161 -59 -995 -362 -1853 -675 l-1560 -567 -5 1503
c-4 1322 -7 1505 -20 1513 -17 11 -10 13 -160 -43 l-115 -42 -3 -1521 -2
-1521 -1698 -618 c-933 -340 -1703 -620 -1709 -622 -10 -4 -13 278 -13 1391 0
768 -4 1396 -8 1396 -4 0 -69 -22 -145 -50 l-137 -50 -150 0 -150 0 0 -555 0
-555 -2045 0 -2045 0 0 555 0 555 -154 0 -154 0 -136 50 c-75 28 -138 50 -141
50 -3 0 -5 -628 -5 -1395 0 -767 -2 -1395 -5 -1395 -5 0 -3341 1213 -3397
1235 -17 7 -18 91 -20 1528 l-3 1521 -134 48 c-103 38 -136 46 -147 37 -12
-10 -14 -248 -16 -1514 l-3 -1503 -1850 673 -1850 673 -3 1400 -2 1399 -143
52 c-78 28 -145 51 -149 51 -5 0 -9 -627 -10 -1394 l-3 -1394 -1850 673 -1850
673 -5 1522 -5 1523 -130 47 c-94 35 -135 45 -147 39 -15 -8 -18 -25 -18 -115
0 -80 -3 -105 -12 -102 -10 4 -14 91 -16 381 l-2 377 -38 0 c-21 0 -42 -3 -45
-7z m3276 -4858 l847 -308 0 -763 c0 -420 -1 -764 -2 -764 -2 0 -835 303
-1853 674 l-1850 674 -3 765 -2 765 1007 -367 c555 -202 1389 -506 1856 -676z
m25283 -483 c-3 -2 -814 -298 -1803 -658 -989 -360 -1822 -663 -1850 -674
l-53 -20 0 764 0 763 1853 674 1852 675 3 -760 c1 -417 0 -761 -2 -764z
m-20430 -1282 c2 0 4 -344 4 -765 0 -421 -1 -765 -2 -765 -2 0 -835 304 -1853
674 l-1850 674 -3 765 -2 765 1851 -674 c1018 -371 1853 -674 1855 -674z
m16420 -177 c-2 -2 -836 -307 -1852 -677 l-1849 -673 -3 761 c-1 419 1 762 5
764 5 2 838 306 1853 676 l1845 672 3 -760 c1 -417 0 -761 -2 -763z m-8016
152 l0 -325 -2045 0 -2045 0 0 325 0 325 2045 0 2045 0 0 -325z m-6313 -737
l1633 -593 0 -762 c0 -420 -3 -763 -7 -763 -5 0 -773 279 -1708 619 l-1700
619 -3 766 -2 765 77 -29 c43 -15 813 -295 1710 -622z m10320 -875 c-4 -4
-3407 -1243 -3413 -1243 -2 0 -4 343 -4 763 l0 762 1708 621 1707 621 3 -760
c1 -418 1 -762 -1 -764z m-4007 952 l0 -255 -2045 0 -2045 0 0 255 0 255 2045
0 2045 0 0 -255z m0 -735 l0 -400 -470 0 -470 0 -2 378 -3 377 -452 3 c-291 1
-453 6 -453 12 0 13 -287 13 -295 0 -4 -6 -157 -10 -426 -10 l-419 0 0 -380 0
-380 -550 0 -550 0 0 400 0 400 2045 0 2045 0 0 -400z m-2990 -795 l0 -315
1025 0 1025 0 0 315 0 315 470 0 470 0 0 -325 0 -325 -2045 0 -2045 0 0 325 0
325 550 0 550 0 0 -315z m2990 -1030 l0 -615 -610 0 c-400 0 -610 3 -610 10 0
7 -267 10 -780 10 -513 0 -780 -3 -780 -10 0 -7 -225 -10 -655 -10 l-655 0 0
615 0 615 2045 0 2045 0 0 -615z m-2780 -857 c0 -148 3 -174 30 -281 16 -65
34 -126 40 -137 5 -10 10 -23 10 -29 0 -8 -210 -11 -695 -11 l-695 0 0 310 0
310 655 0 655 0 0 -162z m2780 -148 l0 -310 -651 0 c-616 0 -651 1 -644 18 4
9 21 60 38 112 29 90 31 106 35 293 l4 197 609 0 609 0 0 -310z"/>
<path d="M18927 17203 c-4 -3 -7 -269 -7 -590 l0 -583 1685 0 1685 0 0 590 0
590 -1678 0 c-923 0 -1682 -3 -1685 -7z"/>
</g>
</svg>
